<svg viewBox="0 0 24 24" xmlns="http://www.w3.org/2000/svg">
  <path d="M 8 7 C 8.507 7 8.934 7.38 8.993 7.883 L 9 8.01 C 8.999 8.78 8.165 9.26 7.499 8.874 C 7.227 8.717 7.044 8.44 7.007 8.127 L 7 8 C 7 7.448 7.448 7 8 7 Z M 6 11 C 6.507 11 6.934 11.38 6.993 11.883 L 7 12.01 C 6.999 12.78 6.165 13.26 5.499 12.874 C 5.227 12.717 5.044 12.44 5.007 12.127 L 5 12 C 5 11.448 5.448 11 6 11 Z M 8 15 C 8.507 15 8.934 15.38 8.993 15.883 L 9 16.01 C 8.999 16.78 8.165 17.26 7.499 16.874 C 7.227 16.717 7.044 16.44 7.007 16.127 L 7 16 C 7 15.448 7.448 15 8 15 Z M 12 17 C 12.507 17 12.934 17.38 12.993 17.883 L 13 18.01 C 12.999 18.78 12.165 19.26 11.499 18.874 C 11.227 18.717 11.044 18.44 11.007 18.127 L 11 18 C 11 17.448 11.448 17 12 17 Z M 16 15 C 16.507 15 16.934 15.38 16.993 15.883 L 17 16.01 C 16.999 16.78 16.165 17.26 15.499 16.874 C 15.227 16.717 15.044 16.44 15.007 16.127 L 15 16 C 15 15.448 15.448 15 16 15 Z M 18 11 C 18.507 11 18.934 11.38 18.993 11.883 L 19 12.01 C 18.999 12.78 18.165 13.26 17.499 12.874 C 17.227 12.717 17.044 12.44 17.007 12.127 L 17 12 C 17 11.448 17.448 11 18 11 Z M 16 7 C 16.507 7 16.934 7.38 16.993 7.883 L 17 8.01 C 16.999 8.78 16.165 9.26 15.499 8.874 C 15.227 8.717 15.044 8.44 15.007 8.127 L 15 8 C 15 7.448 15.448 7 16 7 Z M 12 5 C 12.507 5 12.934 5.38 12.993 5.883 L 13 6.01 C 12.999 6.78 12.165 7.26 11.499 6.8740000000000006 C 11.227 6.717 11.044 6.44 11.007 6.127 L 11 6 C 11 5.448 11.448 5 12 5 Z M 10.5 9.402 C 12.5 8.247 15 9.691 15 12 C 15 13.072 14.428 14.062 13.5 14.598 C 11.5 15.753 9 14.309 9 12 C 9 10.928 9.572 9.938 10.5 9.402 Z" />
</svg>
