<svg viewBox="0 0 24 24" xmlns="http://www.w3.org/2000/svg">
  <path d="M 12 8 C 15.079201435678003 8 17.00369920406433 11.33333333333211 15.464098486225328 13.999999999998776 C 13.924497768386328 16.666666666665442 10.075495973788822 16.666666666665442 8.53589525594982 13.999999999998778 C 8.21869315589378 13.450589846434172 8.036720210005603 12.833610698613152 8.004999999999999 12.2 L 7.999999999999999 12 L 8.004999999999999 11.8 C 8.111570009105153 9.671265735365633 9.868599817896907 8 12 8 Z M 12 2 C 12.50697397176264 2.000068017696157 12.933684049332694 2.37950796365024 12.993 2.883 L 13 3 L 13 5 C 12.999146152837893 5.769799885384257 12.165279677644858 6.250000497373573 11.499040344652794 5.864361101348111 C 11.226503097596348 5.70660833271873 11.04419267024394 5.429696645846204 11.007 5.117 L 11 5 L 11 3 C 11 2.4477152501692068 11.447715250169207 2 12 2 Z M 17.693 4.893 C 18.23825417530462 4.349593635567752 19.16729268012219 4.600219616932774 19.365269308646354 5.344126766482232 C 19.445404871422664 5.645240178337262 19.380600366672173 5.966499502140692 19.19 6.213 L 19.107000000000003 6.307 L 17.707000000000004 7.707000000000001 C 17.161745824695387 8.250406364432248 16.232707319877814 7.999780383067227 16.03473069135365 7.25587323351777 C 15.954595128577342 6.954759821662741 16.019399633327833 6.633500497859308 16.210000000000004 6.3870000000000005 L 16.293000000000003 6.293 L 17.693 4.893000000000001 L 17.693 4.893 Z M 21 11 C 21.76979988549228 11.000853749767087 22.250000476462475 11.834720164064848 21.864361164729562 12.500959545847971 C 21.706608408433326 12.773496851127105 21.42969668971515 12.955807324255183 21.117 12.993 L 21 13 L 19 13 C 18.23020011450772 12.999146250232913 17.749999523537525 12.165279835935154 18.135638835270438 11.49904045415203 C 18.293391591566674 11.226503148872897 18.57030331028485 11.044192675744817 18.883 11.007 L 19 11 L 21 11 Z M 16.293 16.293 C 16.649268533219995 15.93676492580704 17.214914727742908 15.901197778732106 17.613 16.21 L 17.707 16.293 L 19.107 17.692999999999998 C 19.650406364228477 18.2382541755077 19.399780382780065 19.167292680496313 18.65587323315662 19.365269308742462 C 18.35475982154963 19.445404871332258 18.033500497716474 19.380600366386613 17.787 19.189999999999998 L 17.692999999999998 19.107 L 16.293 17.707 C 15.902618061667138 17.316500148514187 15.902618061667136 16.683499851485813 16.293 16.293 Z M 12 18 C 12.50697397176264 18.000068017696158 12.933684049332694 18.37950796365024 12.993 18.883 L 13 19 L 13 21 C 12.999146152837893 21.76979988538426 12.165279677644858 22.250000497373577 11.499040344652794 21.864361101348116 C 11.226503097596348 21.706608332718737 11.04419267024394 21.429696645846207 11.007 21.117 L 11 21 L 11 19 C 11 18.447715250169207 11.447715250169207 18 12 18 Z M 6.293 16.293 C 6.838254175304619 15.749593635567752 7.767292680122191 16.000219616932775 7.965269308646353 16.744126766482232 C 8.045404871422663 17.045240178337263 7.980600366672171 17.36649950214069 7.79 17.613 L 7.707 17.707 L 6.307 19.107 C 5.7617458246953825 19.650406364432246 4.83270731987781 19.399780383067224 4.6347306913536475 18.655873233517767 C 4.554595128577338 18.354759821662736 4.61939963332783 18.033500497859308 4.8100000000000005 17.787 L 4.893000000000001 17.692999999999998 L 6.293000000000001 16.293 L 6.293 16.293 Z M 6 11 C 6.76979988549228 11.000853749767087 7.2500004764624695 11.834720164064848 6.864361164729558 12.500959545847971 C 6.706608408433322 12.773496851127105 6.429696689715149 12.955807324255183 6.117 12.993 L 6 13 L 4 13 C 3.2302001145077206 12.999146250232913 2.7499995235375314 12.165279835935154 3.1356388352704427 11.49904045415203 C 3.293391591566678 11.226503148872897 3.570303310284851 11.044192675744817 3.883 11.007 L 4 11 L 6 11 Z M 4.893 4.893 C 5.249268533219993 4.536764925807041 5.814914727742908 4.501197778732105 6.213 4.8100000000000005 L 6.307 4.893 L 7.707000000000001 6.292999999999999 C 8.250406364228478 6.838254175507698 7.999780382780067 7.767292680496314 7.255873233156622 7.965269308742465 C 6.9547598215496365 8.045404871332261 6.633500497716476 7.9806003663866125 6.3870000000000005 7.789999999999999 L 6.293 7.706999999999999 L 4.893000000000001 6.306999999999999 C 4.502618061667138 5.916500148514185 4.502618061667138 5.2834998514858125 4.893000000000001 4.892999999999999 L 4.893 4.893 Z" />
</svg>
