<svg viewBox="0 0 24 24" xmlns="http://www.w3.org/2000/svg">
  <path d="M 12 8 C 15.079201435678003 8 17.00369920406433 11.33333333333211 15.464098486225328 13.999999999998776 C 13.924497768386328 16.666666666665442 10.075495973788822 16.666666666665442 8.53589525594982 13.999999999998778 C 8.21869315589378 13.450589846434172 8.036720210005603 12.833610698613152 8.004999999999999 12.2 L 7.999999999999999 12 L 8.004999999999999 11.8 C 8.111570009105153 9.671265735365633 9.868599817896907 8 12 8 Z M 12 4 C 12.50697397176264 4.000068017696157 12.933684049332694 4.37950796365024 12.993 4.883 L 13 5.01 C 12.999146152837893 5.779799885384257 12.165279677644858 6.260000497373573 11.499040344652794 5.874361101348111 C 11.226503097596348 5.71660833271873 11.04419267024394 5.439696645846204 11.007 5.127 L 11 5 C 11 4.447715250169207 11.447715250169207 4 12 4 Z M 17 6 C 17.50697397176264 6.000068017696157 17.93368404933269 6.37950796365024 17.993 6.883 L 18 7.01 C 17.999146152837895 7.779799885384257 17.16527967764486 8.260000497373559 16.499040344652798 7.8743611013480965 C 16.226503097596353 7.716608332718716 16.04419267024394 7.439696645846204 16.007 7.127 L 16 7 C 16 6.447715250169207 16.447715250169207 6 17 6 Z M 19 11 C 19.50697397176264 11.000068017696158 19.93368404933269 11.379507963650239 19.993 11.883 L 20 12.01 C 19.999146152837895 12.779799885384257 19.16527967764486 13.260000497373559 18.499040344652798 12.874361101348097 C 18.226503097596353 12.716608332718716 18.04419267024394 12.439696645846205 18.007 12.127 L 18 12 C 18 11.447715250169207 18.447715250169207 11 19 11 Z M 17 16 C 17.50697397176264 16.000068017696158 17.93368404933269 16.37950796365024 17.993 16.883 L 18 17.009999999999998 C 17.999146152837895 17.779799885384257 17.16527967764486 18.260000497373557 16.499040344652798 17.874361101348097 C 16.226503097596353 17.716608332718717 16.04419267024394 17.439696645846205 16.007 17.127 L 16 17 C 16 16.447715250169207 16.447715250169207 16 17 16 Z M 12 18 C 12.50697397176264 18.000068017696158 12.933684049332694 18.37950796365024 12.993 18.883 L 13 19.009999999999998 C 12.999146152837893 19.779799885384257 12.165279677644858 20.260000497373575 11.499040344652794 19.874361101348114 C 11.226503097596348 19.716608332718735 11.04419267024394 19.439696645846205 11.007 19.127 L 11 19 C 11 18.447715250169207 11.447715250169207 18 12 18 Z M 7 16 C 7.5069739717626405 16.000068017696158 7.933684049332693 16.37950796365024 7.993 16.883 L 8 17.009999999999998 C 7.999146152837893 17.779799885384257 7.165279677644859 18.260000497373575 6.499040344652796 17.874361101348114 C 6.226503097596351 17.716608332718735 6.04419267024394 17.439696645846205 6.007 17.127 L 6 17 C 6 16.447715250169207 6.447715250169207 16 7 16 Z M 5 11 C 5.5069739717626405 11.000068017696158 5.933684049332693 11.379507963650239 5.993 11.883 L 6 12.01 C 5.999146152837894 12.779799885384257 5.165279677644859 13.260000497373573 4.499040344652796 12.87436110134811 C 4.226503097596351 12.71660833271873 4.04419267024394 12.439696645846205 4.007 12.127 L 3.9999999999999996 12 C 3.9999999999999996 11.447715250169207 4.447715250169207 11 5 11 Z M 7 6 C 7.5069739717626405 6.000068017696157 7.933684049332693 6.37950796365024 7.993 6.883 L 8 7.01 C 7.999146152837893 7.779799885384257 7.165279677644859 8.260000497373573 6.499040344652796 7.874361101348111 C 6.226503097596351 7.71660833271873 6.04419267024394 7.439696645846204 6.007 7.127 L 6 7 C 6 6.447715250169207 6.447715250169207 6 7 6 Z" />
</svg>
